<?xml version="1.0" standalone="no"?>
<!DOCTYPE svg PUBLIC "-//W3C//DTD SVG 20010904//EN"
 "http://www.w3.org/TR/2001/REC-SVG-20010904/DTD/svg10.dtd">
<svg version="1.0" xmlns="http://www.w3.org/2000/svg"
 width="500.000000pt" height="500.000000pt" viewBox="0 0 500.000000 500.000000"
 preserveAspectRatio="xMidYMid meet">

<g transform="translate(0.000000,500.000000) scale(0.100000,-0.100000)"
fill="#ffff" stroke="none">
<path d="M940 3834 c0 -185 -3 -236 -17 -282 -23 -76 -23 -227 1 -307 43 -146
143 -270 274 -338 l70 -37 875 0 c925 0 908 1 891 -44 -6 -15 -105 -16 -1178
-16 -1329 0 -1219 7 -1264 -83 -31 -61 -23 -115 23 -166 l33 -36 1796 -3 1796
-2 0 49 c0 76 -28 217 -65 328 -156 467 -565 833 -1046 934 -137 29 -389 31
-524 5 -190 -38 -381 -115 -531 -217 -40 -26 -74 -45 -78 -42 -3 4 -6 114 -6
245 0 131 -2 238 -4 238 -2 0 -73 -31 -158 -69 l-153 -69 -75 20 c-88 23 -227
20 -299 -6 l-45 -17 -125 57 c-70 31 -141 63 -158 71 l-33 13 0 -226z m294
-411 c70 -19 86 -29 86 -53 0 -38 -27 -45 -98 -27 -92 24 -112 46 -76 81 19
20 15 20 88 -1z m520 1 c33 -32 8 -59 -75 -81 -72 -18 -99 -11 -99 27 0 25 17
36 80 53 72 20 76 20 94 1z"/>
<path d="M1414 2256 c-186 -60 -276 -285 -189 -469 89 -190 361 -244 534 -107
35 28 59 59 83 107 30 61 33 76 33 153 0 100 -28 172 -89 233 -65 66 -127 90
-236 94 -60 2 -110 -2 -136 -11z m178 -136 c86 -24 135 -105 125 -205 -9 -89
-66 -150 -150 -161 -66 -9 -112 3 -154 39 -45 39 -63 82 -63 146 0 87 31 138
105 172 46 21 84 23 137 9z"/>
<path d="M4284 2250 c-68 -27 -139 -90 -171 -154 -32 -62 -43 -189 -23 -261
25 -90 108 -176 201 -211 27 -10 77 -17 129 -17 72 -1 94 3 145 26 73 34 128
85 163 152 37 72 43 197 13 276 -29 75 -88 141 -159 176 -77 38 -220 44 -298
13z m222 -145 c66 -33 97 -86 97 -164 0 -107 -62 -179 -163 -189 -95 -9 -176
42 -200 126 -48 173 108 306 266 227z"/>
<path d="M280 1940 l0 -320 75 0 75 0 2 181 3 181 70 -103 70 -104 51 -3 52
-3 76 113 76 112 0 -187 0 -187 75 0 75 0 0 320 0 320 -64 0 -65 0 -108 -160
c-59 -88 -111 -160 -114 -160 -3 0 -54 72 -114 160 l-109 160 -63 0 -63 0 0
-320z"/>
<path d="M2090 1941 l0 -321 75 0 75 0 0 95 0 95 48 0 47 0 54 -95 55 -95 89
0 89 0 -20 33 c-11 17 -40 66 -65 107 l-45 74 43 38 c109 96 94 276 -29 353
l-49 30 -184 3 -183 4 0 -321z m320 174 c32 -17 43 -44 38 -95 -5 -50 -39 -70
-131 -77 l-77 -6 0 97 0 96 70 0 c44 0 82 -6 100 -15z"/>
<path d="M2840 1940 l0 -320 75 0 75 0 0 110 0 110 115 0 115 0 0 65 0 65
-115 0 -115 0 0 75 0 75 125 0 125 0 0 70 0 70 -200 0 -200 0 0 -320z"/>
<path d="M3460 1940 l0 -320 215 0 215 0 0 65 0 65 -140 0 -140 0 0 65 0 65
125 0 125 0 0 65 0 65 -125 0 -125 0 0 60 0 60 135 0 135 0 0 65 0 65 -210 0
-210 0 0 -320z"/>
<path d="M1870 1313 c-31 -12 -50 -37 -50 -68 0 -43 16 -61 75 -82 60 -22 75
-53 25 -53 -18 0 -33 6 -36 15 -4 9 -19 15 -40 15 l-34 0 13 -32 c35 -85 197
-68 197 20 0 36 -28 62 -88 83 -52 18 -62 42 -19 47 18 2 29 -2 33 -12 8 -20
64 -22 64 -2 0 55 -76 92 -140 69z"/>
<path d="M2431 1302 c-94 -50 -92 -186 2 -234 95 -48 200 14 200 118 0 101
-111 165 -202 116z m114 -67 c14 -13 25 -36 25 -50 0 -30 -41 -75 -68 -75 -35
0 -72 38 -72 75 0 24 7 39 26 54 35 27 59 26 89 -4z"/>
<path d="M2080 1280 c0 -28 2 -30 40 -30 l40 0 0 -95 0 -95 30 0 30 0 0 95 0
95 40 0 c38 0 40 2 40 30 l0 30 -110 0 -110 0 0 -30z"/>
<path d="M2710 1185 l0 -125 35 0 c33 0 35 2 35 35 0 25 4 35 15 35 9 0 25
-16 36 -35 17 -29 27 -35 55 -35 40 0 41 2 13 46 l-21 34 21 26 c29 37 27 88
-4 119 -22 22 -32 25 -105 25 l-80 0 0 -125z m140 54 c15 -27 -3 -49 -41 -49
-26 0 -29 3 -29 35 0 32 2 35 30 35 19 0 33 -7 40 -21z"/>
<path d="M3010 1185 l0 -125 91 0 c88 0 90 1 87 23 -3 19 -10 22 -60 25 -54 3
-58 5 -58 27 0 23 4 25 50 25 47 0 50 2 50 25 0 23 -3 25 -50 25 -47 0 -50 2
-50 25 0 24 3 25 55 25 52 0 55 1 55 25 0 25 -1 25 -85 25 l-85 0 0 -125z"/>
<path d="M1620 1150 c0 -18 7 -20 60 -20 53 0 60 2 60 20 0 18 -7 20 -60 20
-53 0 -60 -2 -60 -20z"/>
<path d="M3260 1150 c0 -18 7 -20 60 -20 53 0 60 2 60 20 0 18 -7 20 -60 20
-53 0 -60 -2 -60 -20z"/>
</g>
</svg>
